<?xml version="1.0" encoding="UTF-8" standalone="no"?>
<svg inkscape:export-ydpi="394.54666" inkscape:export-xdpi="394.54666" inkscape:export-filename="/Users/celineauzias/Dropbox/artwork/N2I/2020/n2i2020_affiche_hd.png" width="390.32947" height="193.14497" viewBox="0 0 103.27467 51.102942" version="1.1" id="svg1295" inkscape:version="1.1.1 (c3084ef, 2021-09-22)" sodipodi:docname="N2I2024-couleurs.svg" xmlns:inkscape="http://www.inkscape.org/namespaces/inkscape" xmlns:sodipodi="http://sodipodi.sourceforge.net/DTD/sodipodi-0.dtd" xmlns="http://www.w3.org/2000/svg" xmlns:svg="http://www.w3.org/2000/svg" xmlns:rdf="http://www.w3.org/1999/02/22-rdf-syntax-ns#" xmlns:cc="http://creativecommons.org/ns#" xmlns:dc="http://purl.org/dc/elements/1.1/">
  <defs id="defs1289">
    <clipPath clipPathUnits="userSpaceOnUse" id="clipPath373150">
      <path d="M 0.06,2000 H 930 V 1107 H 0.06 Z" id="path373148"/>
    </clipPath>
    <clipPath clipPathUnits="userSpaceOnUse" id="clipPath373160">
      <path d="m 927,2000 h 932 V 1107 H 927 Z" id="path373158"/>
    </clipPath>
    <clipPath clipPathUnits="userSpaceOnUse" id="clipPath373170">
      <path d="m 1856,2000 h 144 V 0 h -144 z" id="path373168"/>
    </clipPath>
    <clipPath clipPathUnits="userSpaceOnUse" id="clipPath373180">
      <path d="M 0.06,1110 H 930 V 213 H 0.06 Z" id="path373178"/>
    </clipPath>
    <clipPath clipPathUnits="userSpaceOnUse" id="clipPath373190">
      <path d="m 927,213 h 932 v 897 H 927 Z" id="path373188"/>
    </clipPath>
    <clipPath clipPathUnits="userSpaceOnUse" id="clipPath373200">
      <path d="M 0.06,216 H 1859 V 0 H 0.06 Z" id="path373198"/>
    </clipPath>
    <style id="style466654">.cls-1{fill:none}.cls-5{opacity:.45}</style>
    <style id="style6517">.cls-1{fill:none}.cls-5{opacity:.45}</style>
    <clipPath clipPathUnits="userSpaceOnUse" id="clipPath132871">
      <path d="M 0,841.3675 V 0.6325 h 595 v 840.735 z" id="path132869"/>
    </clipPath>
    <clipPath clipPathUnits="userSpaceOnUse" id="clipPath132877">
      <path d="M 336.77,564.395 H 595 V 841.3675 H 336.77 Z" id="path132875"/>
    </clipPath>
    <clipPath clipPathUnits="userSpaceOnUse" id="clipPath132887">
      <path d="M 0,841.3675 V 0.6325 h 595 v 840.735 z" id="path132885"/>
    </clipPath>
    <clipPath clipPathUnits="userSpaceOnUse" id="clipPath132893">
      <path d="M 595,565.2875 V 287.72 H 336.77 v 277.5675 z" id="path132891"/>
    </clipPath>
    <clipPath clipPathUnits="userSpaceOnUse" id="clipPath132899">
      <path d="M 0,0 H 595 V 842 H 0 Z" id="path132897"/>
    </clipPath>
    <clipPath clipPathUnits="userSpaceOnUse" id="clipPath132909">
      <path d="M 0,841.3675 V 0.6325 h 595 v 840.735 z" id="path132907"/>
    </clipPath>
    <clipPath clipPathUnits="userSpaceOnUse" id="clipPath132915">
      <path d="M 336.77,11.045 H 595 V 288.6125 H 336.77 Z" id="path132913"/>
    </clipPath>
    <clipPath clipPathUnits="userSpaceOnUse" id="clipPath132925">
      <path d="M 0,841.3675 V 0.6325 h 595 v 840.735 z" id="path132923"/>
    </clipPath>
    <clipPath clipPathUnits="userSpaceOnUse" id="clipPath132931">
      <path d="M 595,11.9375 V 0.766375 H 0 V 11.9375 Z" id="path132929"/>
    </clipPath>
    <clipPath clipPathUnits="userSpaceOnUse" id="clipPath132937">
      <path d="M 0,0 H 595 V 842 H 0 Z" id="path132935"/>
    </clipPath>
    <clipPath clipPathUnits="userSpaceOnUse" id="clipPath132947">
      <path d="M 0,841.3675 V 0.6325 h 595 v 840.735 z" id="path132945"/>
    </clipPath>
    <clipPath clipPathUnits="userSpaceOnUse" id="clipPath132953">
      <path d="m 69.3175,564.395 h 268.345 V 841.3675 H 69.3175 Z" id="path132951"/>
    </clipPath>
    <clipPath clipPathUnits="userSpaceOnUse" id="clipPath132963">
      <path d="M 0,841.3675 V 0.6325 h 595 v 840.735 z" id="path132961"/>
    </clipPath>
    <clipPath clipPathUnits="userSpaceOnUse" id="clipPath132969">
      <path d="M 69.3175,565.2875 V 287.72 h 268.345 v 277.5675 z" id="path132967"/>
    </clipPath>
    <clipPath clipPathUnits="userSpaceOnUse" id="clipPath132975">
      <path d="M 0,0 H 595 V 842 H 0 Z" id="path132973"/>
    </clipPath>
    <clipPath clipPathUnits="userSpaceOnUse" id="clipPath132985">
      <path d="M 0,841.3675 V 0.6325 h 595 v 840.735 z" id="path132983"/>
    </clipPath>
    <clipPath clipPathUnits="userSpaceOnUse" id="clipPath132991">
      <path d="M 69.3175,288.6125 V 11.045 h 268.345 v 277.5675 z" id="path132989"/>
    </clipPath>
    <clipPath clipPathUnits="userSpaceOnUse" id="clipPath132997">
      <path d="M 0,0 H 595 V 842 H 0 Z" id="path132995"/>
    </clipPath>
    <clipPath clipPathUnits="userSpaceOnUse" id="clipPath133007">
      <path d="M 0,841.3675 V 0.6325 h 595 v 840.735 z" id="path133005"/>
    </clipPath>
    <clipPath clipPathUnits="userSpaceOnUse" id="clipPath133013">
      <path d="M 70.21,841.3675 V 11.045 H 0 v 830.3225 z" id="path133011"/>
    </clipPath>
    <clipPath clipPathUnits="userSpaceOnUse" id="clipPath133019">
      <path d="M 0,0 H 595 V 842 H 0 Z" id="path133017"/>
    </clipPath>
  </defs>
  <sodipodi:namedview units="px" id="base" pagecolor="#ffffff" bordercolor="#666666" borderopacity="1.0" inkscape:pageopacity="0.0" inkscape:pageshadow="2" inkscape:zoom="1.5221366" inkscape:cx="192.82106" inkscape:cy="44.345559" inkscape:document-units="px" inkscape:current-layer="layer1" inkscape:document-rotation="0" showgrid="false" inkscape:window-width="1438" inkscape:window-height="855" inkscape:window-x="0" inkscape:window-y="23" inkscape:window-maximized="0" inkscape:snap-global="false" inkscape:pagecheckerboard="0" showguides="false" fit-margin-top="0" fit-margin-left="0" fit-margin-right="0" fit-margin-bottom="0">
    <inkscape:grid type="xygrid" id="grid3480" originx="-50.042909" originy="-88.673443"/>
    <sodipodi:guide position="-1068.7296,-412.58258" orientation="1,0" id="guide18337"/>
  </sodipodi:namedview>
  <metadata id="metadata1292">
    <rdf:RDF>
      <cc:Work rdf:about="">
        <dc:format>image/svg+xml</dc:format>
        <dc:type rdf:resource="http://purl.org/dc/dcmitype/StillImage"/>
      </cc:Work>
    </rdf:RDF>
  </metadata>
  <g inkscape:label="Calque 1" inkscape:groupmode="layer" id="layer1" transform="translate(-50.04291,-88.673441)">
    <text id="text6622" y="137.86978" x="102.87574" style="font-style:normal;font-variant:normal;font-weight:normal;font-stretch:normal;font-size:22.1119px;line-height:1.25;font-family:Barlow;-inkscape-font-specification:'Barlow, Normal';font-variant-ligatures:normal;font-variant-caps:normal;font-variant-numeric:normal;font-variant-east-asian:normal;text-align:end;text-anchor:end;fill:#ffffff;stroke-width:0.5528" xml:space="preserve"><tspan style="font-style:normal;font-variant:normal;font-weight:normal;font-stretch:normal;font-size:22.1119px;font-family:Barlow;-inkscape-font-specification:'Barlow, Normal';font-variant-ligatures:normal;font-variant-caps:normal;font-variant-numeric:normal;font-variant-east-asian:normal;fill:#ffffff;stroke-width:0.5528" y="137.86978" x="102.87574" id="tspan6620" sodipodi:role="line"/></text>
    <g id="g373142" inkscape:label="vecteezy_neon-sign-stay-home-with-brick-wall-background-vector_8874205" transform="matrix(0.35277777,0,0,-0.35277777,0,705.55557)">
      <g id="g373144">
        <g id="g373146" clip-path="url(#clipPath373150)">
          <g id="g373152" transform="matrix(931.1039,0,0,897.0239,-1.032,1106.988)"/>
        </g>
      </g>
      <g id="g373154">
        <g id="g373156" clip-path="url(#clipPath373160)">
          <g id="g373162" transform="matrix(932.184,0,0,897.0239,926.928,1106.988)"/>
        </g>
      </g>
      <g id="g373164">
        <g id="g373166" clip-path="url(#clipPath373170)">
          <g id="g373172" transform="matrix(145.104,0,0,2005.104,1855.968,-1.092)"/>
        </g>
      </g>
      <g id="g373174">
        <g id="g373176" clip-path="url(#clipPath373180)">
          <g id="g373182" transform="matrix(931.1039,0,0,897.024,-1.032,212.9879)"/>
        </g>
      </g>
      <g id="g373184">
        <g id="g373186" clip-path="url(#clipPath373190)">
          <g id="g373192" transform="matrix(932.184,0,0,897.0242,926.928,212.9879)"/>
        </g>
      </g>
      <g id="g373194">
        <g id="g373196" clip-path="url(#clipPath373200)">
          <g id="g373202" transform="matrix(1860.1442,0,0,217.104,-1.032,-1.092)"/>
        </g>
      </g>
    </g>
    <text xml:space="preserve" style="font-style:normal;font-variant:normal;font-weight:normal;font-stretch:normal;font-size:28.0088px;line-height:1.25;font-family:'CF Dots 521';-inkscape-font-specification:'CF Dots 521, Normal';font-variant-ligatures:normal;font-variant-caps:normal;font-variant-numeric:normal;font-variant-east-asian:normal;text-align:center;letter-spacing:0px;text-anchor:middle;fill:#ffffff;stroke-width:0.583515" x="122.62713" y="238.32457" id="text31448"><tspan sodipodi:role="line" style="font-style:normal;font-variant:normal;font-weight:normal;font-stretch:normal;font-size:28.0088px;font-family:'CF Dots 521';-inkscape-font-specification:'CF Dots 521, Normal';font-variant-ligatures:normal;font-variant-caps:normal;font-variant-numeric:normal;font-variant-east-asian:normal;fill:#ffffff;stroke-width:0.583515" x="122.62713" y="238.32457" id="tspan31446"/></text>
    <g id="g132861" inkscape:label="vecteezy_neon-swirl-curve-blue-line-light-effect-abstract-ring_13316764.pdf" transform="matrix(0.35277777,0,0,-0.35277777,-0.94529492,297.57207)">
      <g id="g132863"/>
      <g id="g132865">
        <g id="g132867" clip-path="url(#clipPath132871)">
          <g id="g132873" clip-path="url(#clipPath132877)">
            <g id="g132879" transform="matrix(0,-277.3247,268.6853,0,336.7545,841.6924)"/>
          </g>
        </g>
      </g>
      <g id="g132881">
        <g id="g132883" clip-path="url(#clipPath132887)">
          <g id="g132889" clip-path="url(#clipPath132893)">
            <g id="g132895" clip-path="url(#clipPath132899)">
              <g id="g132901" transform="matrix(0,-277.6104,268.6853,0,336.7545,565.303)"/>
            </g>
          </g>
        </g>
      </g>
      <g id="g132903">
        <g id="g132905" clip-path="url(#clipPath132909)">
          <g id="g132911" clip-path="url(#clipPath132915)">
            <g id="g132917" transform="matrix(0,-277.6103,268.6853,0,336.7545,288.628)"/>
          </g>
        </g>
      </g>
      <g id="g132919">
        <g id="g132921" clip-path="url(#clipPath132925)">
          <g id="g132927" clip-path="url(#clipPath132931)">
            <g id="g132933" clip-path="url(#clipPath132937)">
              <g id="g132939" transform="matrix(0,-11.64531,611.1198,0,-5.67987,11.95291)"/>
            </g>
          </g>
        </g>
      </g>
      <g id="g132941">
        <g id="g132943" clip-path="url(#clipPath132947)">
          <g id="g132949" clip-path="url(#clipPath132953)">
            <g id="g132955" transform="matrix(0,-277.3247,268.3998,0,69.29013,841.6924)"/>
          </g>
        </g>
      </g>
      <g id="g132957">
        <g id="g132959" clip-path="url(#clipPath132963)">
          <g id="g132965" clip-path="url(#clipPath132969)">
            <g id="g132971" clip-path="url(#clipPath132975)">
              <g id="g132977" transform="matrix(0,-277.6104,268.3997,0,69.2901,565.303)"/>
            </g>
          </g>
        </g>
      </g>
      <g id="g132979">
        <g id="g132981" clip-path="url(#clipPath132985)">
          <g id="g132987" clip-path="url(#clipPath132991)">
            <g id="g132993" clip-path="url(#clipPath132997)">
              <g id="g132999" transform="matrix(0,-277.6103,268.3997,0,69.2901,288.628)"/>
            </g>
          </g>
        </g>
      </g>
      <g id="g133001">
        <g id="g133003" clip-path="url(#clipPath133007)">
          <g id="g133009" clip-path="url(#clipPath133013)">
            <g id="g133015" clip-path="url(#clipPath133019)">
              <g id="g133021" transform="matrix(0,-830.6747,75.90534,0,-5.67987,841.6923)"/>
            </g>
          </g>
        </g>
      </g>
    </g>
    <g id="g55260" transform="translate(-2.3744608,75.304327)">
      <path style="fill:#f5d34b;fill-opacity:1;stroke:none;stroke-width:0.20569px;stroke-linecap:butt;stroke-linejoin:miter;stroke-opacity:1" d="m 100.60803,39.567489 c 0,0 48.98688,-6.665086 49.66955,-2.741528 0.68267,3.923566 3.09297,22.302233 1.87425,22.410236 -1.21871,0.10805 -46.16398,6.360445 -49.57602,5.057264 C 100.5871,63.533903 97.605392,40.553286 100.608,39.567489 Z" id="path55244" sodipodi:nodetypes="cssscc"/>
      <g id="g55258" transform="matrix(0.74045832,0,0,0.74045832,29.655616,-3.7289369)">
        <g id="g55250" transform="matrix(0.70477284,0,0,0.70477284,1.0433033,-24.830492)">
          <path style="fill:#f5d34b;fill-opacity:1;fill-rule:nonzero;stroke:none;stroke-width:2.54829;stroke-linecap:round;stroke-linejoin:round;stroke-miterlimit:4;stroke-dasharray:none;stroke-dashoffset:0;stroke-opacity:1" d="m 73.869519,67.996304 a 4.2221316,8.7853887 80.416557 0 0 -0.151517,0.0035 4.2221316,8.7853887 80.416557 0 0 -2.590713,0.244599 4.2221316,8.7853887 80.416557 0 0 -7.93406,4.750788 c -0.09014,0.203728 -0.124708,0.434216 -0.08608,0.671793 l 0.620113,3.837836 c 0.104775,0.646501 0.705889,1.084033 1.347047,0.978411 l 3.710356,-0.613232 1.040412,6.421665 c -4.859531,1.321877 -9.324092,3.539439 -13.184381,6.4561 l -2.156619,-2.638937 1.82245,-1.515851 c 0.329159,-0.27342 0.37793,-0.760183 0.106714,-1.092094 l -2.377104,-2.911106 c -0.169508,-0.207433 -0.422591,-0.302841 -0.668356,-0.279047 -0.147461,0.01411 -0.293404,0.06968 -0.416859,0.172334 l -7.63778,6.345872 c -0.329142,0.27342 -0.37793,0.760183 -0.106892,1.092094 l 2.380561,2.911104 c 0.271165,0.331894 0.752617,0.376767 1.081778,0.103364 l 1.825888,-1.512393 2.228974,2.728507 c -6.557276,6.543339 -10.586774,15.412829 -10.586774,25.180199 0,20.11477 17.094325,36.44223 38.157877,36.44223 14.328635,0 26.814466,-7.55433 33.338186,-18.71721 C 71.981929,151.23758 52.276537,101.37919 77.442029,83.120453 l 0.165278,-0.02752 -0.01411,-0.08608 c 0.0088,-0.0071 0.01834,-0.01411 0.02752,-0.02063 -0.01058,0 -0.0208,0.0017 -0.03104,0.0035 l -1.037009,-6.397626 3.555348,-0.585664 c 0.641139,-0.105659 1.072778,-0.710884 0.968057,-1.357365 l -0.59944,-3.696584 h 0.0035 a 4.2221316,8.7853887 80.416557 0 0 -0.0071,-0.02416 l -0.02063,-0.117122 c -0.02858,-0.175331 -0.09384,-0.334222 -0.186125,-0.471983 A 4.2221316,8.7853887 80.416557 0 0 73.86874,67.996563 Z m -2.005048,0.857831 c 0.02893,0.0017 0.04957,0.0071 0.06544,0.01411 -2.322991,0.633078 -6.518839,3.079928 -7.231259,4.39249 -0.578555,1.065936 -0.575327,2.601047 -0.575327,2.601047 0,0 -0.236042,-1.357469 -0.175683,-2.576934 0.1016,-2.053167 7.022042,-4.495959 7.916828,-4.430396 z M 60.392295,90.423871 c 1.468298,0.04092 2.605317,1.832733 2.545927,4.010096 -0.05927,2.177309 -1.294641,3.920084 -2.762973,3.87918 -1.468261,-0.04039 -2.605264,-1.85002 -2.54591,-4.027329 0.05927,-2.177327 1.294678,-3.902358 2.762956,-3.861947 z m 20.487994,0.530543 -0.151517,0.155045 -0.871626,0.878505 v 2.346114 l 0.620129,0.623552 0.403067,-0.409963 v -3.593236 z m -0.403084,4.065217 -0.06544,0.06209 -0.554654,0.561551 v 2.346114 l 1.023197,1.030076 v -3.57946 l -0.403084,-0.4203 z m 8.929689,4.836919 0.148167,0.15505 0.844056,0.86127 h 2.762956 l 0.995643,-1.016303 h -4.750788 z m 4.781796,0.02752 -0.155044,0.15504 -0.844056,0.86471 v 2.30477 l 0.609775,0.61323 0.389308,-0.40308 v -3.534652 z m -4.812806,0.0035 v 0.21703 3.31419 l 0.396189,0.40309 0.609775,-0.61324 v -2.30477 z m -32.170302,1.83969 c 1.74246,0.0482 3.098642,2.18429 3.028245,4.768 -0.07038,2.58375 -1.540792,4.63707 -3.283179,4.58886 -1.742299,-0.0482 -3.095255,-2.18083 -3.024787,-4.76456 0.07038,-2.58367 1.537422,-4.64053 3.279721,-4.5923 z m 32.566491,2.14974 -0.06209,0.069 -0.334171,0.34794 v 3.52088 l 1.005964,-1.0163 v -2.30477 l -0.609775,-0.61667 z m 4.030769,0 -0.06544,0.0654 -0.547777,0.55121 v 2.30477 l 0.999087,1.01974 v -3.52434 L 93.802859,103.877 Z m -3.403761,2.95243 -0.02416,0.0275 -0.971516,0.98874 h 4.754228 l -0.995626,-1.0163 h -2.762973 z m -44.128233,4.05834 c 0.887253,7.63612 3.947019,15.00528 8.719538,21.0013 -1.005927,0.73815 -1.760714,1.7714 -1.99815,3.03513 -0.328456,1.74847 0.423844,3.43372 1.660542,4.67843 1.236768,1.24467 2.976208,2.14076 4.988489,2.52525 2.012369,0.38425 3.957848,0.19232 5.560377,-0.50987 0.181576,-0.0794 0.36405,-0.16351 0.537441,-0.25837 1.798583,1.1029 3.690691,2.06645 5.63617,2.87665 -0.06562,-0.29225 -0.09207,-0.57254 -0.03792,-0.86128 0.388056,-2.06538 3.860024,-3.15354 7.744585,-2.41156 3.884383,0.74195 6.720135,3.03334 6.332079,5.09873 -0.08449,0.44992 -0.322811,0.85168 -0.671796,1.1989 5.156449,0.24397 10.355265,-0.50255 15.237673,-2.19452 -7.525349,6.45297 -17.995142,9.26417 -27.705475,7.43451 -8.570297,-1.6371 -16.40609,-6.83248 -21.318239,-14.10078 -4.912061,-7.26835 -6.839108,-16.52104 -5.215873,-25.16297 0.148872,-0.78913 0.326125,-1.5733 0.530544,-2.34955 z m 58.339252,1.80867 -0.15505,0.15505 -1.1851,1.19544 v 3.19705 l 0.81649,0.82338 0.52364,-0.5271 v -4.8438 z m -21.042649,5.46391 0.151519,0.15505 1.333252,1.36426 h 4.371834 l 1.484842,-1.51929 h -7.341501 z m 20.519009,0.0861 -0.0621,0.0654 -0.75449,0.75793 v 3.19705 l 1.34015,1.35048 v -4.82658 l -0.52366,-0.54434 z m -13.053472,0.0344 -0.155047,0.15504 -1.333252,1.36426 v 3.64147 l 0.923273,0.92672 0.565009,-0.5891 v -5.49838 z m -7.589557,0.004 v 0.21705 5.27789 l 0.585665,0.58911 0.91985,-0.92673 v -3.64146 z m 7.024548,6.3252 -0.06544,0.0654 -0.857815,0.86473 v 3.64146 l 1.488282,1.51929 v -5.4777 L 90.467997,124.61 Z m -6.438883,0.004 -0.06544,0.0654 -0.520206,0.54432 v 5.47771 l 1.505514,-1.51928 v -3.64148 l -0.919852,-0.92673 z m 1.023197,4.69223 -0.02416,0.0242 -1.460711,1.49172 h 7.341498 l -1.484842,-1.51584 h -4.371834 z m -24.015755,2.78363 c 0.517192,-0.0106 1.053854,0.0332 1.601964,0.13776 2.923116,0.55834 4.98946,2.62932 4.612976,4.63366 -0.376572,2.00438 -3.050682,3.1732 -5.973798,2.61483 -2.923151,-0.55836 -4.989549,-2.63275 -4.612977,-4.63711 0.305949,-1.62853 2.130728,-2.70243 4.371835,-2.74918 z" id="path55246" inkscape:connector-curvature="0"/>
          <path id="path55248" d="m 81.407551,81.610406 a 1.4160045,1.4278336 0 0 0 -1.415926,1.428078 1.4160045,1.4278336 0 0 0 1.415926,1.427782 1.4160045,1.4278336 0 0 0 1.416281,-1.427782 1.4160045,1.4278336 0 0 0 -1.416281,-1.428078 z m 7.003875,0.855926 a 1.4160045,1.4278336 0 0 0 -1.415926,1.427763 1.4160045,1.4278336 0 0 0 1.415926,1.427762 1.4160045,1.4278336 0 0 0 1.415909,-1.427762 1.4160045,1.4278336 0 0 0 -1.415909,-1.427763 z m 6.761181,1.73267 a 1.4160045,1.4278336 0 0 0 -1.415945,1.427779 1.4160045,1.4278336 0 0 0 1.415945,1.427745 1.4160045,1.4278336 0 0 0 1.415926,-1.427745 1.4160045,1.4278336 0 0 0 -1.415926,-1.427779 z m 7.525523,0.547881 c -0.28792,0.01236 -0.56772,0.151341 -0.75528,0.402801 l -4.461806,5.982477 c -0.333412,0.447022 -0.245006,1.077471 0.198312,1.413669 l 0.961638,0.729561 c 0.443335,0.33618 1.068564,0.247016 1.401976,-0.200007 l 4.46218,-5.982476 c 0.33339,-0.447023 0.24497,-1.077842 -0.19835,-1.414039 l -0.96197,-0.729193 c -0.19398,-0.147108 -0.42275,-0.21292 -0.6467,-0.202793 z m 3.83646,7.221149 c -0.78196,5.3e-5 -1.41587,0.639269 -1.41593,1.42778 6e-5,0.788494 0.63397,1.427692 1.41593,1.427745 0.78199,-3.5e-5 1.41586,-0.639234 1.41591,-1.427745 -5e-5,-0.788529 -0.63392,-1.427744 -1.41591,-1.42778 z m 4.65806,5.037826 a 1.4160045,1.4278336 0 0 0 -1.41593,1.427762 1.4160045,1.4278336 0 0 0 1.41593,1.427745 1.4160045,1.4278336 0 0 0 1.41628,-1.427745 1.4160045,1.4278336 0 0 0 -1.41628,-1.427762 z m 3.68385,6.637042 a 1.4160045,1.4278336 0 0 0 -1.41593,1.42776 1.4160045,1.4278336 0 0 0 1.41593,1.42774 1.4160045,1.4278336 0 0 0 1.41594,-1.42774 1.4160045,1.4278336 0 0 0 -1.41594,-1.42776 z m 5.84249,6.19973 c -0.0667,-0.002 -0.13441,0.005 -0.20253,0.0176 l -7.29507,1.38585 c -0.54511,0.10354 -0.90128,0.62952 -0.79858,1.1792 l 0.22277,1.19254 c 0.10266,0.54967 0.6243,0.9088 1.16941,0.80526 l 7.29507,-1.38587 c 0.54513,-0.10354 0.9013,-0.62952 0.79859,-1.17916 l -0.22278,-1.19259 c -0.0898,-0.48094 -0.50047,-0.81594 -0.96688,-0.82283 z m -2.82488,7.77009 a 1.4160045,1.4278336 0 0 0 -1.41591,1.42776 1.4160045,1.4278336 0 0 0 1.41591,1.42775 1.4160045,1.4278336 0 0 0 1.41628,-1.42775 1.4160045,1.4278336 0 0 0 -1.41628,-1.42776 z m -0.5482,6.91836 a 1.4160045,1.4278336 0 0 0 -1.41593,1.42775 1.4160045,1.4278336 0 0 0 1.41593,1.42778 1.4160045,1.4278336 0 0 0 1.41628,-1.42778 1.4160045,1.4278336 0 0 0 -1.41628,-1.42775 z m -2.2379,6.9402 a 1.4160045,1.4278336 0 0 0 -1.41593,1.42776 1.4160045,1.4278336 0 0 0 1.41593,1.42775 1.4160045,1.4278336 0 0 0 1.41593,-1.42775 1.4160045,1.4278336 0 0 0 -1.41593,-1.42776 z" style="font-style:normal;font-variant:normal;font-weight:normal;font-stretch:normal;font-size:medium;line-height:100%;font-family:DS-Digital;-inkscape-font-specification:DS-Digital;text-align:start;writing-mode:lr-tb;text-anchor:start;fill:#1c3c8e;fill-opacity:1;stroke:none;stroke-width:0.269111;stroke-miterlimit:4;stroke-dasharray:none;stroke-opacity:1" inkscape:connector-curvature="0"/>
        </g>
        <path style="font-style:normal;font-variant:normal;font-weight:bold;font-stretch:normal;font-size:medium;line-height:100%;font-family:Raleway;-inkscape-font-specification:'Raleway, Bold';text-align:center;writing-mode:lr-tb;text-anchor:middle;fill:#1c3c8e;fill-opacity:1;fill-rule:nonzero;stroke:none;stroke-width:7.07904;stroke-linecap:round;stroke-linejoin:round;stroke-miterlimit:4;stroke-dasharray:none;stroke-dashoffset:0;stroke-opacity:1" d="m 168.76024,24.831942 v 2.756077 h 1.45383 v -2.756077 z m -78.176115,0.15848 v 8.733307 h 6.36309 v -1.48828 h -4.60609 v -7.245027 z m 10.004555,0 -3.448535,8.733307 h 1.80523 l 0.83026,-2.1773 h 3.155715 l 0.8406,2.1773 h 1.80524 l -3.43477,-8.733307 z m 8.64031,0 v 8.733307 h 1.75699 v -5.59483 l 4.64744,5.59483 h 1.42627 v -8.719527 h -1.757 v 5.718847 l -4.70945,-5.732627 z m 9.59459,0 v 4.454497 c 0,0.56564 0.0675,1.10833 0.20326,1.63298 0.14427,0.52468 0.37501,0.99014 0.68902,1.39182 0.31401,0.3935 0.72231,0.71181 1.22301,0.95774 0.5092,0.23773 1.12175,0.35828 1.84312,0.35828 0.6959,0 1.29418,-0.11496 1.7949,-0.3445 0.5007,-0.22953 0.90899,-0.54357 1.22301,-0.93707 0.32249,-0.39349 0.55509,-0.84994 0.69935,-1.37459 0.15275,-0.52465 0.23082,-1.08621 0.23082,-1.68466 v -4.454497 h -1.74322 v 4.454497 c 0,0.3607 -0.0374,0.71334 -0.11368,1.05765 -0.0679,0.3361 -0.19385,0.63339 -0.37207,0.89572 -0.16972,0.26232 -0.39703,0.47683 -0.68558,0.64079 -0.28007,0.16395 -0.62802,0.2446 -1.04386,0.2446 -0.40736,0 -0.75347,-0.0785 -1.03353,-0.23426 -0.28006,-0.16397 -0.50735,-0.37503 -0.68558,-0.63734 -0.16979,-0.26234 -0.2923,-0.56307 -0.36862,-0.89917 -0.0678,-0.34431 -0.10336,-0.6991 -0.10336,-1.06799 v -4.454497 z m 9.67727,0 v 8.733307 h 1.757 v -8.733307 z m 2.86632,0 v 1.48828 h 2.88699 v 7.245027 h 1.74667 v -7.245027 h 2.88698 v -1.48828 z m 11.35504,0 v 8.733307 h 3.28317 c 0.67894,0 1.28965,-0.10511 1.83279,-0.31006 0.55163,-0.21313 1.02211,-0.50828 1.4125,-0.88538 0.39038,-0.3853 0.6886,-0.84175 0.89228,-1.3746 0.21217,-0.54104 0.31695,-1.14464 0.31695,-1.80867 0,-0.59843 -0.0923,-1.16 -0.27906,-1.68465 -0.18671,-0.532867 -0.4672,-0.994897 -0.8406,-1.388377 -0.37342,-0.3935 -0.8386,-0.70752 -1.39871,-0.93706 -0.55165,-0.22953 -1.19782,-0.34451 -1.93615,-0.34451 z m 9.0985,0 v 8.733307 h 6.27696 v -1.48828 h -4.51996 v -2.27721 h 3.80683 v -1.37459 h -3.80683 v -2.104947 h 4.40628 v -1.48828 z m 10.71769,0 v 8.733307 h 6.36309 v -1.48828 h -4.60609 v -7.245027 z m -18.05919,1.48828 h 1.52617 c 0.42434,0 0.80246,0.0708 1.13344,0.21015 0.33946,0.13937 0.6218,0.33498 0.85094,0.589107 0.22914,0.25414 0.40485,0.55701 0.52366,0.90951 0.11881,0.3525 0.17914,0.73947 0.17914,1.15755 0,0.40989 -0.0603,0.79126 -0.17914,1.14377 -0.11881,0.3525 -0.29452,0.66095 -0.52366,0.92329 -0.22065,0.25411 -0.49769,0.45532 -0.83716,0.60289 -0.33099,0.14755 -0.71441,0.22048 -1.14722,0.22048 h -1.52617 z m -43.11538,0.44441 1.25057,3.431317 h -2.54937 z m 57.9603,8.971037 c -0.24682,0 -0.63555,0.007 -1.16445,0.0241 -0.52889,0.0169 -1.11848,0.0522 -1.77077,0.10335 -0.65232,0.0341 -1.3408,0.0835 -2.06362,0.15158 -0.72282,0.0511 -1.40138,0.12157 -2.03605,0.20671 -0.63468,0.0681 -1.18799,0.15275 -1.66398,0.25494 -0.476,0.10217 -0.80209,0.21152 -0.97841,0.33072 -0.21154,0.13624 -0.40592,0.40778 -0.58222,0.81649 -0.1763,0.39169 -0.34433,0.86065 -0.50298,1.4056 -0.14104,0.54495 -0.27278,1.13379 -0.39619,1.76389 -0.12337,0.63011 -0.22876,1.25073 -0.31695,1.8638 -0.0881,0.59604 -0.16068,1.15673 -0.2136,1.68465 -0.0529,0.51088 -0.0792,0.93046 -0.0792,1.25401 0,0.59606 0.0362,1.22376 0.1068,1.88792 0.0881,0.66416 0.19355,1.33764 0.31695,2.01882 0.14104,0.66418 0.30905,1.32003 0.50299,1.96715 0.19392,0.6301 0.4047,1.22603 0.6339,1.78801 0.0882,0.20436 0.18712,0.41941 0.29283,0.64079 0.10578,0.22139 0.2276,0.4259 0.36863,0.61322 0.12342,0.17029 0.42316,0.31488 0.89917,0.43408 0.49361,0.1022 1.06678,0.19392 1.7191,0.27906 0.66992,0.0682 1.38478,0.12811 2.14285,0.17914 0.7581,0.0341 1.4794,0.0587 2.16697,0.0758 0.70517,0.0171 1.33105,0.0346 1.87757,0.0517 h 1.16445 c 0.68756,0 1.42874,0.0105 2.22208,0.0275 0.79334,0.017 1.58378,-0.0182 2.37712,-0.10336 0.79335,-0.0851 1.55439,-0.24734 2.27721,-0.48576 0.74045,-0.25544 1.37279,-0.63976 1.90169,-1.15066 0.0881,-0.0851 0.17708,-0.31435 0.26527,-0.68901 0.0881,-0.37467 0.16716,-0.81549 0.23771,-1.32637 0.0881,-0.52792 0.16068,-1.09914 0.2136,-1.71221 0.0704,-0.61307 0.1232,-1.19138 0.15847,-1.73633 0.0529,-0.56197 0.0857,-1.05563 0.10336,-1.48139 0.0353,-0.42575 0.0616,-0.72544 0.0792,-0.89572 0.0176,-0.20436 0.0275,-0.40887 0.0275,-0.61323 v -0.66491 c 0,-0.22138 -0.01,-0.51761 -0.0275,-0.89227 -0.0176,-0.37467 -0.044,-0.7837 -0.0792,-1.22646 -0.0176,-0.4598 -0.0504,-0.93585 -0.10336,-1.42971 -0.0353,-0.49386 -0.0814,-0.96282 -0.13436,-1.4056 -0.0528,-0.44278 -0.12195,-0.83418 -0.21015,-1.17478 -0.0705,-0.35761 -0.14951,-0.6326 -0.23771,-0.81993 -0.10577,-0.22138 -0.37269,-0.42246 -0.79581,-0.60978 -0.42313,-0.18734 -0.93367,-0.36007 -1.53308,-0.51332 -0.58178,-0.15326 -1.21413,-0.28022 -1.90169,-0.38241 -0.68757,-0.11925 -1.36612,-0.21441 -2.03605,-0.2825 -0.66993,-0.0851 -1.2958,-0.1416 -1.87757,-0.1757 -0.56416,-0.0341 -1.01551,-0.0517 -1.35048,-0.0517 z m -43.29108,0.0517 -10.33873,0.0482 c 0.17626,3.2697 0.29807,6.52433 0.36862,9.75996 0.0705,3.23565 0.15297,6.48681 0.24116,9.75651 l 5.71197,0.15503 c 0.10577,-2.29901 0.23753,-4.58045 0.39619,-6.84541 0.1763,-2.28197 0.34431,-4.57396 0.50298,-6.87296 0.44075,1.05584 0.87872,2.10311 1.31947,3.14192 0.44074,1.03882 0.90853,2.079 1.40215,3.11782 0.66993,1.41345 1.34199,2.8169 2.01194,4.21335 0.66992,1.37941 1.33855,2.77578 2.00849,4.18923 0.5289,-0.0852 1.05931,-0.15222 1.58819,-0.20326 0.54653,-0.0512 1.08341,-0.0758 1.6123,-0.0758 1.07543,0 2.15913,0.0246 3.25217,0.0758 0.0176,-1.49861 0.0276,-2.97252 0.0276,-4.42005 0.0176,-1.46455 0.0241,-2.94557 0.0241,-4.44418 0,-1.77109 -0.0263,-3.53416 -0.0792,-5.28822 -0.0529,-1.75405 -0.11548,-3.51712 -0.18603,-5.28822 l -5.3399,-0.61323 c 0.0353,2.14575 0.078,4.27553 0.13091,6.38721 0.0705,2.11168 0.11672,4.23093 0.13436,6.35965 -0.51126,-1.32833 -1.0218,-2.64714 -1.53307,-3.95842 -0.51126,-1.32833 -0.97255,-2.66475 -1.37803,-4.01009 -0.28207,-0.88554 -0.58183,-1.75645 -0.89917,-2.60794 -0.29971,-0.8685 -0.62582,-1.72543 -0.97841,-2.57693 z m -14.01465,1.07143 c -1.93928,0.13623 -3.859625,0.2561 -5.763645,0.35829 -1.88638,0.0852 -3.79031,0.16273 -5.71197,0.23082 0.0353,0.71524 0.0616,1.4276 0.0792,2.14285 0.0353,0.69822 0.0681,1.40692 0.10335,2.12218 l 2.51492,0.30661 c 0.12347,1.58376 0.23535,3.15994 0.34106,4.72667 0.12336,1.56673 0.22876,3.15 0.31695,4.75079 l -1.71565,0.0241 c 0.0529,0.83446 0.0857,1.6596 0.10335,2.47702 0.0176,0.8004 0.0276,1.61846 0.0276,2.45291 l 9.494685,-0.15158 c -0.0881,-0.40872 -0.15076,-0.82829 -0.18603,-1.25402 -0.0176,-0.42574 -0.0276,-0.84894 -0.0276,-1.27469 v -1.53306 c -1e-5,-0.51088 0.0198,-1.01509 0.0551,-1.50895 l -2.697515,-0.0517 c -0.0176,-0.71524 -0.0375,-1.41342 -0.0551,-2.09462 v -2.11873 -1.76389 c 0.0176,-0.57901 0.0375,-1.16441 0.0551,-1.76044 l 2.935225,0.0999 c 0.0353,-1.02178 0.0418,-2.04091 0.0241,-3.06269 -0.0176,-1.03881 0.0186,-2.079 0.10679,-3.11781 z m 34.48541,0.0517 c -1.02254,0 -2.03712,0.0176 -3.04202,0.0517 -0.98727,0.017 -1.99194,0.0312 -3.01446,0.0482 v 5.13664 2.27376 c 0,1.99248 -0.01,3.97423 -0.0275,5.94968 -0.0176,1.9584 -0.0703,3.93653 -0.15847,5.92901 l 6.95564,-0.23082 c 0,-1.27724 -0.0362,-2.54665 -0.1068,-3.80683 -0.0705,-1.27722 -0.1923,-2.55371 -0.36862,-3.83095 0.79335,-0.15327 1.58722,-0.27315 2.38056,-0.35829 0.81098,-0.10219 1.61134,-0.23967 2.40468,-0.40996 l -0.7407,-2.55282 -4.38905,-0.2825 -0.21015,-2.19452 c 1.51614,-0.1363 3.0115,-0.23147 4.4924,-0.2825 1.49855,-0.0511 3.01718,-0.11813 4.55098,-0.20326 0,-0.83446 -0.0528,-1.65961 -0.15848,-2.47703 -0.0882,-0.83446 -0.18712,-1.66304 -0.29283,-2.48046 -1.39276,-0.0681 -2.77622,-0.128 -4.15134,-0.17915 -1.37512,-0.0681 -2.74866,-0.0999 -4.12378,-0.0999 z m 22.05206,5.69475 c 0.24683,0 0.67182,0.0105 1.27124,0.0276 0.59941,0 1.21535,0.0248 1.85002,0.0758 0.65229,0.0511 1.24533,0.13573 1.77422,0.25494 0.54652,0.1192 0.88903,0.2814 1.03008,0.48576 0.1939,0.2895 0.30924,0.63152 0.34452,1.02319 0.0353,0.37466 0.0517,0.73084 0.0517,1.07143 0,0.18733 -0.01,0.49409 -0.0276,0.91984 0,0.4087 -0.0164,0.84244 -0.0517,1.30224 -0.0353,0.44277 -0.0879,0.85888 -0.15847,1.25057 -0.0705,0.37466 -0.15944,0.62149 -0.26527,0.7407 -0.14106,0.15325 -0.45722,0.29076 -0.95085,0.40996 -0.476,0.1022 -1.0064,0.19737 -1.58819,0.2825 -0.56415,0.0681 -1.11097,0.11748 -1.63986,0.15158 -0.51126,0.0341 -0.8702,0.0517 -1.08177,0.0517 h -0.66145 c -0.2997,-0.017 -0.65217,-0.0346 -1.05765,-0.0517 -0.38786,-0.034 -0.79301,-0.0692 -1.21612,-0.10335 -0.42311,-0.0341 -0.82826,-0.0764 -1.21611,-0.12746 -0.37023,-0.0682 -0.68985,-0.13518 -0.9543,-0.20327 -0.26443,-0.0681 -0.4225,-0.14568 -0.47542,-0.23082 -0.0881,-0.1192 -0.15723,-0.30609 -0.21015,-0.56155 -0.0353,-0.25543 -0.0715,-0.52697 -0.1068,-0.81648 -0.0353,-0.28951 -0.0616,-0.57158 -0.0792,-0.84405 v -0.61323 c 0,-0.15327 0.01,-0.4001 0.0276,-0.7407 0.0176,-0.35761 0.044,-0.72432 0.0792,-1.09898 0.0528,-0.39168 0.10556,-0.74787 0.15848,-1.07143 0.0706,-0.3406 0.15611,-0.56981 0.26183,-0.68901 0.10577,-0.15327 0.38911,-0.28022 0.84749,-0.38241 0.45837,-0.11924 0.95249,-0.21441 1.48139,-0.2825 0.54652,-0.0851 1.05705,-0.14504 1.53307,-0.17914 0.49363,-0.0341 0.83616,-0.0517 1.03008,-0.0517 z" id="path55252" inkscape:connector-curvature="0"/>
        <g aria-label="2024" id="text55256" style="font-size:30.0691px;line-height:1.25;font-family:Slackey;-inkscape-font-specification:'Slackey, Normal';text-align:end;letter-spacing:0px;text-anchor:end;fill:#1c3c8e;stroke-width:0.751732">
          <path d="m 108.27533,76.673959 q -0.0587,1.761861 -0.0881,3.523722 -0.0294,1.761862 -0.11746,3.523723 l -15.357557,0.557923 q -0.146822,-2.231691 -0.352372,-4.434018 -0.176186,-2.231691 -0.352373,-4.492746 1.174575,-0.440466 2.407878,-0.969024 1.233302,-0.557923 2.407877,-1.233303 1.174574,-0.67538 2.261055,-1.468218 1.086482,-0.792837 1.938052,-1.732497 0.44046,-0.499194 0.76347,-0.969023 0.35237,-0.499194 0.35237,-1.174575 0,-1.585675 -0.64601,-2.084869 -0.61666,-0.528558 -1.996781,-0.528558 -0.587287,0 -1.203939,0.02936 -0.587287,0 -1.115845,0.08809 -0.851566,0.146822 -1.057117,0.557923 -0.176186,0.411101 -0.176186,1.203939 0,0.234914 0,0.499194 0.02936,0.264279 0.05873,0.528558 l -4.551475,0.616651 q -0.176186,-1.321395 -0.176186,-2.613427 0,-0.323008 0.02936,-0.939659 0.05873,-0.616652 0.176186,-1.262668 0.146822,-0.646016 0.352372,-1.203938 0.205551,-0.557923 0.557923,-0.763473 0.528558,-0.323008 1.673768,-0.557923 1.14521,-0.234915 2.437242,-0.352372 1.321396,-0.146822 2.525334,-0.205551 1.203941,-0.05873 1.849951,-0.05873 1.11585,0 2.08487,0.05873 0.99839,0.05873 1.79123,0.381737 0.8222,0.293643 1.40949,0.998388 0.58728,0.67538 0.88093,1.908683 0.14682,0.67538 0.17618,1.380124 0.0294,0.704745 0.0294,1.380125 0,0.264279 -0.0294,0.704745 0,0.440465 -0.0294,0.910295 -0.0294,0.469829 -0.11746,0.88093 -0.0881,0.411101 -0.20555,0.67538 -0.17618,0.323008 -0.70474,0.851567 -0.4992,0.499194 -1.11585,1.027752 -0.61665,0.499194 -1.20394,0.969024 -0.58728,0.440465 -0.91029,0.67538 -0.4992,0.352372 -1.05712,0.67538 -0.52856,0.293644 -1.02775,0.616652 -0.969024,0.557922 -1.967412,1.115845 -0.969024,0.528559 -1.967412,1.057117 5.667324,-0.08809 11.364004,-0.352372 z" id="path1058"/>
          <path d="m 129.3883,69.832064 q 0,0.528558 0,1.438853 0,0.880931 -0.0294,1.996776 -0.0294,1.086482 -0.0881,2.261056 -0.0587,1.14521 -0.17618,2.202326 -0.11746,1.027753 -0.32301,1.82059 -0.17619,0.792838 -0.44047,1.14521 -0.35237,0.411101 -0.8222,0.910295 -0.44046,0.46983 -0.96902,0.93966 -0.52856,0.440465 -1.08648,0.792837 -0.52856,0.352372 -1.05712,0.499194 -0.46983,0.146822 -1.32139,0.234915 -0.82221,0.08809 -1.7325,0.117458 -0.88093,0.05873 -1.7325,0.05873 -0.85156,0.02936 -1.38012,0.02936 -0.26428,0 -0.76348,0 -0.46983,0 -0.99838,-0.05873 -0.52856,-0.02936 -0.99839,-0.08809 -0.46983,-0.05873 -0.67538,-0.205551 -0.64602,-0.411101 -1.20394,-0.969023 -0.52856,-0.587287 -0.93966,-1.262668 -0.38174,-0.616651 -0.58729,-1.409489 -0.20555,-0.792837 -0.35237,-1.526946 -0.14682,-0.822202 -0.29364,-1.791226 -0.11746,-0.998388 -0.23492,-2.02614 -0.0881,-1.027753 -0.14682,-2.026141 -0.0587,-0.998388 -0.0587,-1.879318 0,-0.499195 0.0587,-1.556311 0.0587,-1.086481 0.17619,-2.231691 0.14682,-1.14521 0.35237,-2.143598 0.20555,-1.027753 0.52856,-1.409489 0.323,-0.411101 0.99838,-0.734109 0.67538,-0.352372 1.52695,-0.616652 0.85157,-0.264279 1.79123,-0.440465 0.96902,-0.20555 1.87932,-0.323008 0.91029,-0.146822 1.67376,-0.20555 0.76348,-0.05873 1.23331,-0.05873 0.49919,0 1.11584,0.02936 0.61665,0 1.2333,0.05873 0.64602,0.05873 1.23331,0.176186 0.58728,0.117458 1.05711,0.323008 0.38174,0.176186 0.9103,0.557923 0.52856,0.352372 0.99839,0.792837 0.49919,0.440466 0.88093,0.910295 0.4111,0.46983 0.55792,0.822202 0.0881,0.176187 0.11746,0.880931 0.0294,0.67538 0.0587,1.468218 0.0294,0.792837 0.0294,1.526946 0,0.704745 0,0.969024 z m -5.75541,3.464994 q 0,-0.323008 -0.0294,-0.998388 -0.0294,-0.704745 -0.0881,-1.556311 -0.0294,-0.880931 -0.0881,-1.791226 -0.0587,-0.939659 -0.17619,-1.761861 -0.0881,-0.822202 -0.20555,-1.409489 -0.11746,-0.616651 -0.26428,-0.822202 -0.23491,-0.323008 -0.70474,-0.381737 -0.46983,-0.08809 -0.85157,-0.08809 -0.32301,0 -0.93966,0.05873 -0.58729,0.05873 -1.2333,0.205551 -0.64602,0.117457 -1.20394,0.293643 -0.55792,0.176186 -0.79284,0.411101 -0.35237,0.352372 -0.55792,1.409489 -0.17619,1.027753 -0.26428,2.261055 -0.0881,1.233303 -0.11746,2.378513 0,1.14521 0,1.703133 0,0.323008 0.0294,0.998388 0.0294,0.646016 0.0587,1.497582 0.0587,0.822202 0.11745,1.732497 0.0881,0.880931 0.17619,1.673768 0.0881,0.763473 0.17619,1.321396 0.11745,0.528558 0.26428,0.67538 0.11745,0.117458 0.323,0.176186 0.23492,0.05873 0.4992,0.08809 0.26428,0.02936 0.49919,0.02936 0.23492,0 0.38174,0 0.32301,0 0.79284,-0.02936 0.49919,-0.02936 0.99838,-0.08809 0.52856,-0.05873 0.96903,-0.146821 0.46983,-0.08809 0.76347,-0.234915 0.29364,-0.146822 0.52856,-0.67538 0.23491,-0.528559 0.38174,-1.262668 0.17618,-0.734109 0.26427,-1.55631 0.11746,-0.851567 0.17619,-1.644404 0.0587,-0.792838 0.0881,-1.438854 0.0294,-0.67538 0.0294,-1.027752 z" id="path1060"/>
          <path d="m 149.26797,76.673959 q -0.0587,1.761861 -0.0881,3.523722 -0.0294,1.761862 -0.11746,3.523723 l -15.35756,0.557923 q -0.14682,-2.231691 -0.35237,-4.434018 -0.17619,-2.231691 -0.35237,-4.492746 1.17457,-0.440466 2.40787,-0.969024 1.23331,-0.557923 2.40788,-1.233303 1.17457,-0.67538 2.26106,-1.468218 1.08648,-0.792837 1.93804,-1.732497 0.44047,-0.499194 0.76348,-0.969023 0.35237,-0.499194 0.35237,-1.174575 0,-1.585675 -0.64602,-2.084869 -0.61665,-0.528558 -1.99677,-0.528558 -0.58729,0 -1.20394,0.02936 -0.58729,0 -1.11585,0.08809 -0.85156,0.146822 -1.05711,0.557923 -0.17619,0.411101 -0.17619,1.203939 0,0.234914 0,0.499194 0.0294,0.264279 0.0587,0.528558 l -4.55148,0.616651 q -0.17618,-1.321395 -0.17618,-2.613427 0,-0.323008 0.0294,-0.939659 0.0587,-0.616652 0.17619,-1.262668 0.14682,-0.646016 0.35237,-1.203938 0.20555,-0.557923 0.55792,-0.763473 0.52856,-0.323008 1.67377,-0.557923 1.14521,-0.234915 2.43724,-0.352372 1.3214,-0.146822 2.52534,-0.205551 1.20394,-0.05873 1.84995,-0.05873 1.11585,0 2.08487,0.05873 0.99839,0.05873 1.79123,0.381737 0.8222,0.293643 1.40949,0.998388 0.58728,0.67538 0.88093,1.908683 0.14682,0.67538 0.17618,1.380124 0.0294,0.704745 0.0294,1.380125 0,0.264279 -0.0294,0.704745 0,0.440465 -0.0294,0.910295 -0.0294,0.469829 -0.11746,0.88093 -0.0881,0.411101 -0.20555,0.67538 -0.17619,0.323008 -0.70474,0.851567 -0.4992,0.499194 -1.11585,1.027752 -0.61665,0.499194 -1.20394,0.969024 -0.58729,0.440465 -0.91029,0.67538 -0.4992,0.352372 -1.05712,0.67538 -0.52856,0.293644 -1.02775,0.616652 -0.96903,0.557922 -1.96741,1.115845 -0.96903,0.528559 -1.96742,1.057117 5.66732,-0.08809 11.36401,-0.352372 z" id="path1062"/>
          <path d="m 169.99921,74.207353 -2.73089,0.05873 q 0,2.378512 0.0587,4.727661 0.0881,2.319784 0.23491,4.698296 l -6.54825,0.323008 q -0.0587,-2.290419 -0.0881,-4.610203 0,-2.319784 -0.0587,-4.639568 l -9.04422,0.20555 q 0.14682,-3.200715 0.23492,-6.401429 0.0881,-3.200715 0.23491,-6.40143 l 3.64118,-0.323008 q 0.4111,2.055505 0.70474,4.140374 0.32301,2.055505 0.58729,4.140375 l 3.49436,-0.08809 q 0.0587,-0.969023 0.0881,-1.938047 0.0587,-0.969024 0.0587,-1.938047 0,-1.203939 -0.0294,-2.407877 -0.0294,-1.203939 -0.0881,-2.407878 0.58729,0 1.14521,0 0.55793,-0.02936 1.14521,-0.02936 1.11585,0 2.2317,0.05873 1.14521,0.05873 2.29041,0.117457 l 0.0587,8.133926 1.93805,-0.05873 q 0.23492,1.115845 0.29364,2.319784 0.0881,1.174574 0.14683,2.319784 z" id="path1064"/>
        </g>
      </g>
    </g>
  </g>
  <style type="text/css" id="style203371">
	.st0{fill:#17182D;}
	.st1{fill:#23253A;}
	.st2{fill:#2C2E42;}
	.st3{fill:#D0110E;}
	.st4{fill:#FEDC25;}
	.st5{fill:#FDBC1D;}
	.st6{fill:#F9DE6B;}
	.st7{fill:#F9E491;}
	.st8{fill:#212333;}
	.st9{fill:#EA365D;}
	.st10{fill:#FF4061;}
	.st11{fill:#F3AA65;}
	.st12{fill:#C17842;}
	.st13{fill:#FABD86;}
	.st14{fill:#935C3E;}
	.st15{fill:#444444;}
	.st16{fill:#333333;}
	.st17{fill:#4D4D4D;}
	.st18{fill:#FFFFFF;}
	.st19{fill:#EFDDDB;}
	.st20{fill:#F9F8F7;}
</style>
</svg>